<svg xmlns="http://www.w3.org/2000/svg" width="240" height="240" style="fill: #BB4343"><path d="M233.637 178.205h-21.073a6.847 6.847 0 0 0 .378-2.24V61.396c0-3.803-3.104-6.896-6.917-6.896H34.006c-3.814 0-6.917 3.094-6.917 6.896v114.568c0 .783.135 1.537.378 2.24H6.359a.358.358 0 0 0-.359.355v3.521c0 .109 0 .402.263.592.063.047.129.096.2.145 1.571 1.078 5.511 2.682 9.929 2.682h207.216c4.418 0 8.357-1.604 9.928-2.682h.002a6.03 6.03 0 0 0 .254-.186c.209-.162.209-.408.209-.502v-3.566a.372.372 0 0 0-.364-.358zM27.568 61.396c0-3.539 2.888-6.418 6.438-6.418h172.019c3.549 0 6.437 2.879 6.437 6.418v114.568a6.36 6.36 0 0 1-.408 2.24h-18.83l-.023-.105-.564-2.496h16.791a2.394 2.394 0 0 0 2.398-2.391v-111.9c0-3.143-2.564-5.699-5.717-5.699H33.922c-3.152 0-5.717 2.557-5.717 5.699v111.901a2.395 2.395 0 0 0 2.398 2.391h16.238l-.564 2.496-.023.105H27.978a6.338 6.338 0 0 1-.409-2.24V61.396zm76.303 116.809H46.747l.584-2.586h144.816l.585 2.586H103.871zm31.756.479c-.142.77-.901 2.082-2.245 2.082h-26.763c-1.344 0-2.104-1.313-2.244-2.082h31.252zm-105.023-3.557a1.919 1.919 0 0 1-1.919-1.914V61.312c0-2.879 2.35-5.222 5.237-5.222h172.186c2.888 0 5.237 2.343 5.237 5.222v111.901a1.919 1.919 0 0 1-1.919 1.914H30.604zm193.003 9.894H16.392c-3.738 0-7.114-1.17-8.937-2.162h225.088c-1.82.993-5.197 2.162-8.936 2.162zm9.913-2.89c0 .045-.002.107-.021.123a4.376 4.376 0 0 1-.174.129H6.674c-.043-.031-.084-.063-.126-.092-.045-.033-.068-.074-.068-.209v-3.398h97.409c.14.99 1.092 2.561 2.73 2.561h26.763c1.639 0 2.591-1.57 2.729-2.561h97.408v3.447zM206.532 61.909H33.344a.6.6 0 0 0-.6.598v108.052a.6.6 0 0 0 .6.6h173.188a.6.6 0 0 0 .6-.6V62.507a.6.6 0 0 0-.6-.598zm0 108.65H33.344V62.507h173.188v108.052zM120.046 60.25c.53 0 .96-.429.96-.956 0-.529-.43-.957-.96-.957s-.96.428-.96.957c0 .527.43.956.96.956zm0-1.436a.48.48 0 1 1 0 .958.48.48 0 0 1 0-.958zM84.542 184.736c.047 0 .095 0 .142-.002.666-.018 1.053-.139 1.149-.363a.31.31 0 0 0-.06-.336c-.273-.307-1.251-.322-1.443-.322-.048 0-.095 0-.142.002-.666.018-1.053.139-1.149.363a.308.308 0 0 0 .06.336c.273.307 1.25.322 1.443.322zm70.498-.002c.047.002.095.002.142.002.193 0 1.17-.016 1.443-.322a.312.312 0 0 0 .061-.336c-.098-.225-.484-.346-1.15-.363-.047-.002-.094-.002-.141-.002-.193 0-1.171.016-1.443.322a.312.312 0 0 0-.061.336c.096.225.483.346 1.149.363z"/></svg>