<svg xmlns="http://www.w3.org/2000/svg" width="240" height="240" style="fill: #BB4343"><path d="M149.107 48.532c-1.289-.564-2.787-.851-4.453-.851H96.653c-1.666 0-3.164.286-4.453.851a8.108 8.108 0 0 0-2.907 2.132c-1.348 1.56-2.12 3.678-2.12 5.813v128.17c0 2.134.772 4.253 2.12 5.812a8.079 8.079 0 0 0 2.907 2.131c1.289.566 2.787.854 4.453.854H144.655c1.666 0 3.164-.287 4.453-.854a8.07 8.07 0 0 0 2.907-2.131c1.348-1.559 2.12-3.678 2.12-5.812V56.477c0-2.135-.772-4.253-2.12-5.813a8.111 8.111 0 0 0-2.908-2.132zm4.282 11.224v124.891c0 1.956-.706 3.896-1.938 5.321a7.375 7.375 0 0 1-2.643 1.936c-1.194.525-2.592.789-4.154.789H96.653c-1.563 0-2.961-.264-4.154-.789a7.36 7.36 0 0 1-2.643-1.936c-1.231-1.426-1.938-3.365-1.938-5.321V56.477c0-1.957.706-3.897 1.938-5.322a7.378 7.378 0 0 1 2.643-1.936c1.193-.523 2.592-.789 4.154-.789H144.655c1.563 0 2.96.266 4.154.789a7.363 7.363 0 0 1 2.643 1.936c1.231 1.425 1.938 3.365 1.938 5.322v3.279zm.011-10.289c-1.443-1.671-4.148-3.662-8.84-3.662h-.031v-.402c0-.465-.44-.904-.906-.904H132.96c-.461 0-.897.442-.897.91v.396H96.559c-4.691 0-7.396 1.991-8.84 3.662-1.652 1.911-2.6 4.498-2.6 7.099v9.573h-.306c-.449 0-.813.338-.813.753v6.209c0 .415.364.753.813.753h.306v3.111h-.29c-.411 0-.829.416-.829.824v9.585c0 .413.397.819.804.819h.315v2.571h-.308c-.417 0-.812.391-.812.803v9.661c0 .447.457.808.836.808h.283v82.706c0 2.6.947 5.188 2.6 7.1 1.443 1.67 4.148 3.66 8.84 3.66H144.56c4.691 0 7.396-1.99 8.84-3.66 1.652-1.912 2.6-4.5 2.6-7.1V56.566c0-2.601-.947-5.188-2.6-7.099zm-68.281 52.008h-.283c-.104 0-.277-.143-.277-.246v-9.661c0-.104.15-.242.253-.242h.308v10.149zm0-13.843h-.315c-.103 0-.245-.154-.245-.258v-9.585c0-.104.168-.263.271-.263h.29v10.106zm0-14.343h-.306c-.112 0-.204-.084-.204-.188v-6.209c0-.104.092-.188.204-.188h.306v6.585zm47.503-27.881c0-.157.184-.349.338-.349h10.663c.154 0 .346.186.346.343v.402h-11.346v-.396zm22.632 14.437V184.742c0 2.422-.881 4.832-2.416 6.609-1.342 1.553-3.867 3.402-8.277 3.402H96.559c-4.41 0-6.934-1.85-8.276-3.404-1.536-1.775-2.417-4.186-2.417-6.607V56.566c0-2.423.881-4.832 2.418-6.609 1.342-1.552 3.865-3.402 8.275-3.402H144.561c4.41 0 6.936 1.851 8.277 3.402 1.535 1.777 2.416 4.187 2.416 6.609v3.279zm-34.693-4.823a1.59 1.59 0 0 0 0-3.182 1.59 1.59 0 0 0 0 3.182zm0-2.62a1.03 1.03 0 0 1 0 2.058 1.029 1.029 0 0 1 0-2.058zm0 1.623a.56.56 0 0 0 .559-.562.56.56 0 1 0-1.12 0c0 .31.251.562.561.562zm-5.084 6.565h10.166c.799 0 1.445-.67 1.445-1.496 0-.827-.646-1.498-1.445-1.498h-10.166c-.798 0-1.445.671-1.445 1.498-.001.826.647 1.496 1.445 1.496zm0-2.221h10.166c.387 0 .699.324.699.725a.712.712 0 0 1-.699.724h-10.166a.712.712 0 0 1-.699-.724.712.712 0 0 1 .699-.725zm5.084 119.477c-3.606 0-6.529 2.933-6.529 6.55 0 3.616 2.923 6.55 6.529 6.55 3.605 0 6.527-2.934 6.527-6.55 0-3.618-2.922-6.55-6.527-6.55zm0 12.351c-3.189 0-5.783-2.604-5.783-5.802s2.594-5.801 5.783-5.801c3.188 0 5.781 2.603 5.781 5.801s-2.594 5.802-5.781 5.802zm1.398-8.353h-2.611c-.67 0-1.213.544-1.213 1.215v2.617c0 .671.543 1.215 1.213 1.215h2.611c.67 0 1.213-.544 1.213-1.215v-2.617c0-.671-.543-1.215-1.213-1.215zm.467 3.832a.467.467 0 0 1-.467.467h-2.611a.467.467 0 0 1-.467-.467v-2.617c0-.258.209-.468.467-.468h2.611c.258 0 .467.21.467.468v2.617zm27.978-118.908H90.715a.747.747 0 0 0-.746.748v106.279c0 .413.334.748.746.748h59.689a.747.747 0 0 0 .746-.748V67.516a.747.747 0 0 0-.746-.748zm0 107.027H90.715V67.516h59.689v106.279z"/></svg>