<svg xmlns="http://www.w3.org/2000/svg" width="240" height="240" style="fill: #BB4343"><path d="M202.934 62.268c-1.376-1.463-3.276-2.268-5.351-2.268H42.096a7.008 7.008 0 0 0-5.021 2.092C35.736 63.447 35 65.264 35 67.209v105.838c0 1.838.738 3.576 2.08 4.898A7.116 7.116 0 0 0 42.096 180h155.809c3.913 0 7.096-3.424 7.096-7.631V67.621c-.001-2.035-.734-3.937-2.067-5.353zm1.527 110.101c0 3.912-2.936 7.092-6.557 7.092H42.096c-3.621 0-6.557-2.93-6.557-6.414V67.209c0-3.742 2.936-6.67 6.557-6.67h155.487c4.05 0 6.878 3.234 6.878 7.082v104.748zm-6.878-111.027H42.096c-1.539 0-2.98.602-4.06 1.691-1.088 1.102-1.687 2.584-1.687 4.172v105.838c0 1.475.596 2.873 1.679 3.939a5.769 5.769 0 0 0 4.067 1.666h155.809c3.168 0 5.746-2.818 5.746-6.285V67.617c0-1.691-.604-3.266-1.7-4.432-1.118-1.187-2.669-1.843-4.367-1.843zm5.527 111.021c0 3.17-2.335 5.746-5.206 5.746H42.096a5.228 5.228 0 0 1-3.688-1.512c-.979-.965-1.519-2.227-1.519-3.555V67.205c0-1.447.544-2.793 1.531-3.793a5.138 5.138 0 0 1 3.676-1.531h155.487c1.547 0 2.958.594 3.974 1.674 1.002 1.066 1.554 2.508 1.554 4.063v104.745zM189.077 67.541H50.92a.674.674 0 0 0-.675.674v103.434c0 .371.302.674.675.674h138.157a.675.675 0 0 0 .675-.674V68.215a.674.674 0 0 0-.675-.674zm0 104.107H50.92V68.215h138.157v103.433zm-145.778-52.66a1.01 1.01 0 0 0 0 2.02 1.01 1.01 0 1 0 0-2.02zm0 1.617a.606.606 0 1 1 0-1.212.607.607 0 1 1 0 1.212zm.025 1.749c-.302 0-.546.242-.546.541s.244.541.546.541a.542.542 0 1 0 0-1.082zm153.851-6.327a4.046 4.046 0 0 0-4.049 4.041 4.045 4.045 0 0 0 4.049 4.041l.097-.002a4.046 4.046 0 0 0 3.952-4.039 4.046 4.046 0 0 0-4.049-4.041zm2.509 6.489a3.492 3.492 0 0 1-2.425 1.053h-.037c-.016.002-.031.002-.047.002a3.509 3.509 0 0 1-3.509-3.502 3.51 3.51 0 0 1 7.018 0c0 .919-.356 1.788-1 2.447zm-1.71-3.93h-1.599a.685.685 0 0 0-.686.684v1.596c0 .377.307.684.686.684h1.599a.686.686 0 0 0 .686-.684v-1.596a.687.687 0 0 0-.686-.684zm.145 2.279c0 .08-.065.145-.146.145h-1.599a.145.145 0 0 1-.146-.145v-1.596c0-.08.065-.145.146-.145h1.599c.08 0 .146.064.146.145v1.596z"/></svg>